<svg xmlns="http://www.w3.org/2000/svg" viewBox="0 0 24 24" fill="none" stroke="currentColor" stroke-width="2" stroke-linecap="round" stroke-linejoin="round">
  <path d="M8.684 13.342C8.886 12.938 9 12.482 9 12c0-.482-.114-.938-.316-1.342"/>
  <path d="M8.684 13.342a3 3 0 1 0 0-2.684"/>
  <path d="M8.684 13.342l6.632 3.316"/>
  <path d="M8.684 10.658l6.632-3.316"/>
  <path d="M15.316 7.342a3 3 0 1 0 5.367-2.684 3 3 0 0 0-5.367 2.684"/>
  <path d="M15.316 16.658a3 3 0 1 0 5.368 2.684 3 3 0 0 0-5.368-2.684"/>
</svg>
