<svg xmlns="http://www.w3.org/2000/svg" viewBox="0 0 48 48">
  <filter id="shadow" x="-20%" y="-20%" width="140%" height="140%">
    <feDropShadow dx="1" dy="1" stdDeviation="1" flood-opacity="0.2"/>
  </filter>

  <path d="M10 4h20l10 10v30H10z" fill="#fff" stroke="#e0e0e0" stroke-width="1" filter="url(#shadow)"/>
  <path d="M30 4v10h10" fill="#f5f5f5" stroke="#e0e0e0" stroke-width="1"/>

  <!-- Window/terminal on document -->
  <rect x="15" y="22" width="20" height="14" rx="1.5" fill="#e2e8f0" stroke="#94a3b8" stroke-width="0.5"/>
  <rect x="15" y="22" width="20" height="3.5" rx="1.5" fill="#94a3b8"/>
  <circle cx="17.5" cy="23.8" r="0.8" fill="#ef4444"/>
  <circle cx="20" cy="23.8" r="0.8" fill="#eab308"/>
  <circle cx="22.5" cy="23.8" r="0.8" fill="#22c55e"/>
  <text x="17" y="31" font-family="monospace" font-size="3.5" fill="#475569">&gt;_run</text>

  <rect x="6" y="16" width="16" height="16" rx="2" fill="#475569"/>
  <!-- Gear icon -->
  <circle cx="14" cy="24" r="4" fill="none" stroke="white" stroke-width="1.3"/>
  <circle cx="14" cy="24" r="1.5" fill="white"/>
  <line x1="14" y1="19" x2="14" y2="20.5" stroke="white" stroke-width="1.3"/>
  <line x1="14" y1="27.5" x2="14" y2="29" stroke="white" stroke-width="1.3"/>
  <line x1="9" y1="24" x2="10.5" y2="24" stroke="white" stroke-width="1.3"/>
  <line x1="17.5" y1="24" x2="19" y2="24" stroke="white" stroke-width="1.3"/>
</svg>
