<svg xmlns="http://www.w3.org/2000/svg" viewBox="0 0 48 48">
  <filter id="shadow" x="-20%" y="-20%" width="140%" height="140%">
    <feDropShadow dx="1" dy="1" stdDeviation="1" flood-opacity="0.2"/>
  </filter>

  <path d="M10 4h20l10 10v30H10z" fill="#fff" stroke="#e0e0e0" stroke-width="1" filter="url(#shadow)"/>
  <path d="M30 4v10h10" fill="#f5f5f5" stroke="#e0e0e0" stroke-width="1"/>

  <!-- Waveform bars -->
  <rect x="15" y="28" width="2" height="8" rx="1" fill="#99f6e4"/>
  <rect x="19" y="24" width="2" height="12" rx="1" fill="#99f6e4"/>
  <rect x="23" y="22" width="2" height="14" rx="1" fill="#99f6e4"/>
  <rect x="27" y="26" width="2" height="10" rx="1" fill="#99f6e4"/>
  <rect x="31" y="29" width="2" height="7" rx="1" fill="#99f6e4"/>

  <rect x="6" y="16" width="16" height="16" rx="2" fill="#0d9488"/>
  <!-- Music note -->
  <circle cx="11" cy="27" r="2" fill="white"/>
  <rect x="12.5" y="20" width="1.5" height="7" fill="white"/>
  <circle cx="17" cy="25" r="2" fill="white"/>
  <rect x="18.5" y="18" width="1.5" height="7" fill="white"/>
  <rect x="12.5" y="18" width="7.5" height="1.5" fill="white"/>
</svg>
