<svg xmlns="http://www.w3.org/2000/svg" viewBox="0 0 48 48">
  <filter id="shadow" x="-20%" y="-20%" width="140%" height="140%">
    <feDropShadow dx="1" dy="1" stdDeviation="1" flood-opacity="0.2"/>
  </filter>

  <path d="M10 4h20l10 10v30H10z" fill="#fff" stroke="#e0e0e0" stroke-width="1" filter="url(#shadow)"/>
  <path d="M30 4v10h10" fill="#f5f5f5" stroke="#e0e0e0" stroke-width="1"/>

  <!-- Database cylinder on doc -->
  <ellipse cx="27" cy="24" rx="7" ry="2.5" fill="#c7d2fe"/>
  <rect x="20" y="24" width="14" height="10" fill="#c7d2fe"/>
  <ellipse cx="27" cy="34" rx="7" ry="2.5" fill="#a5b4fc"/>
  <ellipse cx="27" cy="29" rx="7" ry="2.5" fill="none" stroke="#818cf8" stroke-width="0.5"/>
  <ellipse cx="27" cy="24" rx="7" ry="2.5" fill="#a5b4fc"/>

  <rect x="6" y="16" width="16" height="16" rx="2" fill="#4f46e5"/>
  <!-- DB icon -->
  <ellipse cx="14" cy="21" rx="5" ry="2" fill="none" stroke="white" stroke-width="1.2"/>
  <path d="M9 21v6c0 1.1 2.24 2 5 2s5-.9 5-2v-6" fill="none" stroke="white" stroke-width="1.2"/>
  <path d="M9 24.5c0 1.1 2.24 2 5 2s5-.9 5-2" fill="none" stroke="white" stroke-width="0.8"/>
</svg>
